# xmcd
#
# Track frame offsets:
#	150
#	21566
#	34011
#	50453
#	63443
#	78720
#	101370
#	114905
#	135131
#	162281
#	181450
#	200238
#	213408
#	223782
#	254724
#	272287
#
# Disc length: 3940 seconds
# Revision: 0
# Processed by: cddbd v1.5.2PL0 Copyright (c) Steve Scherf et al.
# Submitted via: dBpowerAMP V12.0
#
DISCID=e90f6210
DTITLE=Peter Hook And The Light - Unknown Pleasures - Live In Australia
DYEAR=2011
DGENRE=Indie Rock
TTITLE0=No Love Lost
TTITLE1=Leaders Of Man
TTITLE2=Glass
TTITLE3=Digital
TTITLE4=Disorder
TTITLE5=Day Of The Lords
TTITLE6=Candidate
TTITLE7=Insight
TTITLE8=New Dawn Fades
TTITLE9=She's Lost Control
TTITLE10=Shadowplay
TTITLE11=Wilderness
TTITLE12=Interzone
TTITLE13=I Remember Nothing
TTITLE14=Transmission
TTITLE15=Love Will Tear Us Apart
EXTD=
EXTT0=
EXTT1=
EXTT2=
EXTT3=
EXTT4=
EXTT5=
EXTT6=
EXTT7=
EXTT8=
EXTT9=
EXTT10=
EXTT11=
EXTT12=
EXTT13=
EXTT14=
EXTT15=
PLAYORDER=
